<svg xmlns="http://www.w3.org/2000/svg" fill="none" viewBox="0 0 48 49" height="49" width="48">
<path fill="black" d="M21.6 0.749023H26.4V7.94902H33.6C37.5765 7.94902 40.8 11.1726 40.8 15.149V22.349H48V27.149H40.8V34.349C40.8 38.3255 37.5765 41.549 33.6 41.549H26.4V48.749H21.6V41.549H14.4C10.4236 41.549 7.2 38.3255 7.2 34.349V27.149H0V22.349H7.2V15.149C7.2 11.1726 10.4236 7.94902 14.4 7.94902H21.6V0.749023ZM21.6 36.749H26.4H33.6C34.9255 36.749 36 35.6745 36 34.349V27.149V22.349V15.149C36 13.8235 34.9255 12.749 33.6 12.749H26.4H21.6H14.4C13.0745 12.749 12 13.8235 12 15.149V22.349V27.149V34.349C12 35.6745 13.0745 36.749 14.4 36.749H21.6Z" clip-rule="evenodd" fill-rule="evenodd"></path>
</svg>
