<svg width="42" height="42" viewBox="0 0 42 42" fill="none" xmlns="http://www.w3.org/2000/svg">
<path d="M32.5926 37.294C29.7442 34.113 25.606 32.1112 21 32.1112C16.3941 32.1112 12.2554 34.113 9.40712 37.294M21 41C9.9543 41 1 32.0456 1 21C1 9.9543 9.9543 1 21 1C32.0456 1 41 9.9543 41 21C41 32.0456 32.0456 41 21 41ZM21 25.4444C17.3181 25.4444 14.3333 22.4596 14.3333 18.7778C14.3333 15.0959 17.3181 12.1111 21 12.1111C24.682 12.1111 27.6666 15.0959 27.6666 18.7778C27.6666 22.4596 24.682 25.4444 21 25.4444Z" stroke="black" stroke-width="2" stroke-linecap="round" stroke-linejoin="round"/>
</svg>
