<svg xmlns="http://www.w3.org/2000/svg" fill="none" viewBox="0 0 80 80" height="80" width="80">
<circle fill="#181818" r="40" cy="40" cx="40"></circle>
<path fill="#C4C6CF" d="M46.2591 43.7581H44.9424L44.4758 43.3081C46.1091 41.4081 47.0924 38.9415 47.0924 36.2581C47.0924 30.2748 42.2424 25.4248 36.2591 25.4248C30.2758 25.4248 25.4258 30.2748 25.4258 36.2581C25.4258 42.2415 30.2758 47.0915 36.2591 47.0915C38.9424 47.0915 41.4091 46.1081 43.3091 44.4748L43.7591 44.9415V46.2581L52.0924 54.5748L54.5758 52.0915L46.2591 43.7581ZM36.2591 43.7581C32.1091 43.7581 28.7591 40.4081 28.7591 36.2581C28.7591 32.1081 32.1091 28.7581 36.2591 28.7581C40.4091 28.7581 43.7591 32.1081 43.7591 36.2581C43.7591 40.4081 40.4091 43.7581 36.2591 43.7581ZM37.0924 32.0915H35.4258V35.4248H32.0924V37.0915H35.4258V40.4248H37.0924V37.0915H40.4258V35.4248H37.0924V32.0915Z"></path>
</svg>
