<svg xmlns="http://www.w3.org/2000/svg" fill="none" viewBox="0 0 80 80" height="80" width="80">
<circle fill="#181818" r="40" cy="40" cx="40"></circle>
<path fill="#C4C6CF" d="M31.6667 40.0007L28.3333 36.6673L25 40.0007L28.3333 43.334L31.6667 40.0007ZM49.5167 32.8507L40 23.334H38.3333V35.984L30.6833 28.334L28.3333 30.684L37.65 40.0007L28.3333 49.3173L30.6833 51.6673L38.3333 44.0173V56.6673H40L49.5167 47.1507L42.35 40.0007L49.5167 32.8507ZM41.6667 29.7173L44.8 32.8507L41.6667 35.984V29.7173ZM44.8 47.1507L41.6667 50.284V44.0173L44.8 47.1507ZM51.6667 36.6673L48.3333 40.0007L51.6667 43.334L55 40.0007L51.6667 36.6673Z"></path>
</svg>
