<svg xmlns="http://www.w3.org/2000/svg" fill="none" viewBox="0 0 80 80" height="80" width="80">
<circle fill="#181818" r="40" cy="40" cx="40"></circle>
<path fill="#C4C6CF" d="M48.3333 53.9836C47.85 53.9836 47.4 53.8836 47.0667 53.7336C45.8833 53.1169 45.05 52.2669 44.2167 49.7669C43.3667 47.1669 41.7667 45.9503 40.2333 44.7669C38.9167 43.7503 37.55 42.7003 36.3667 40.5503C35.4833 38.9503 35 37.2003 35 35.6503C35 30.9836 38.6667 27.3169 43.3333 27.3169C48 27.3169 51.6667 30.9836 51.6667 35.6503H55C55 29.1003 49.8833 23.9836 43.3333 23.9836C36.7833 23.9836 31.6667 29.1003 31.6667 35.6503C31.6667 37.7503 32.3 40.0669 33.45 42.1503C34.9667 44.9003 36.75 46.2836 38.2 47.4003C39.55 48.4336 40.5167 49.1836 41.05 50.8169C42.05 53.8503 43.3333 55.5503 45.6 56.7336C46.45 57.1169 47.3833 57.3169 48.3333 57.3169C52.0167 57.3169 55 54.3336 55 50.6503H51.6667C51.6667 52.4836 50.1667 53.9836 48.3333 53.9836ZM32.7333 25.0503L30.3667 22.6836C27.05 26.0003 25 30.5836 25 35.6503C25 40.7169 27.05 45.3003 30.3667 48.6169L32.7167 46.2669C30.0167 43.5503 28.3333 39.8003 28.3333 35.6503C28.3333 31.5003 30.0167 27.7503 32.7333 25.0503ZM39.1667 35.6503C39.1667 37.9503 41.0333 39.8169 43.3333 39.8169C45.6333 39.8169 47.5 37.9503 47.5 35.6503C47.5 33.3503 45.6333 31.4836 43.3333 31.4836C41.0333 31.4836 39.1667 33.3503 39.1667 35.6503Z"></path>
</svg>
