<svg xmlns="http://www.w3.org/2000/svg" fill="none" viewBox="0 0 80 80" height="80" width="80">
<circle fill="#181818" r="40" cy="40" cx="40"></circle>
<path fill="#C4C6CF" d="M39.9993 23.334C31.116 30.9173 26.666 37.4673 26.666 43.0007C26.666 51.3007 32.9993 56.6673 39.9993 56.6673C46.9993 56.6673 53.3327 51.3007 53.3327 43.0007C53.3327 37.4673 48.8827 30.9173 39.9993 23.334ZM39.9993 53.334C34.416 53.334 29.9993 49.0507 29.9993 43.0007C29.9993 39.1007 33.2493 33.934 39.9993 27.7673C46.7493 33.934 49.9993 39.084 49.9993 43.0007C49.9993 49.0507 45.5827 53.334 39.9993 53.334ZM33.0493 43.334C33.666 43.334 34.166 43.7673 34.2827 44.3673C34.966 48.0673 38.0827 49.334 40.3493 49.1507C41.066 49.1173 41.666 49.684 41.666 50.4007C41.666 51.0673 41.1327 51.6173 40.466 51.6507C36.916 51.8673 32.766 49.834 31.816 44.784C31.6827 44.034 32.2827 43.334 33.0493 43.334Z"></path>
</svg>
