<svg xmlns="http://www.w3.org/2000/svg" fill="none" viewBox="0 0 80 80" height="80" width="80">
<circle fill="#181818" r="40" cy="40" cx="40"></circle>
<path fill="#C4C6CF" d="M30.0013 24.166V21.666H38.3346V29.9993H35.8346V25.9327L25.9346 35.8327H30.0013V38.3327H21.668V29.9993H24.168V34.066L34.068 24.166H30.0013ZM56.4846 42.9493L50.1513 40.166C49.9346 40.066 49.6846 39.9993 49.418 39.9993H48.3346V32.4993C48.3346 30.1993 46.468 28.3327 44.168 28.3327C41.868 28.3327 40.0013 30.1993 40.0013 32.4993V46.0827L36.8846 45.416C36.568 45.366 35.1846 45.166 34.0013 46.3493L31.668 48.6993L40.2013 57.3493C40.818 57.9827 41.668 58.3327 42.5513 58.3327H53.468C55.1013 58.3327 56.4846 57.166 56.7513 55.5493L58.2846 46.4827C58.5346 45.0493 57.8013 43.616 56.4846 42.9493ZM53.468 54.9993H42.5513L36.3846 48.6993L43.3346 50.1827V32.4993C43.3346 32.0327 43.7013 31.666 44.168 31.666C44.6346 31.666 45.0013 32.0327 45.0013 32.4993V42.7993H47.9346L55.0013 45.9327L53.468 54.9993Z"></path>
</svg>
